<svg xmlns="http://www.w3.org/2000/svg" width="45.707" height="45.707" viewBox="0 0 45.707 45.707">
  <g id="Group_48" data-name="Group 48" transform="translate(1.15 1.15)">
    <path id="Path_9" data-name="Path 9" d="M78,52.7a21.7,21.7,0,1,1,21.7,21.7h0A21.731,21.731,0,0,1,78,52.7Z" transform="translate(-78 -31)" fill="none" stroke="#5865f2" stroke-width="2.3"/>
    <path id="Path_10" data-name="Path 10" d="M130.275,76.509a20.961,20.961,0,0,0-5.24-1.609,15.219,15.219,0,0,0-.667,1.379,18.973,18.973,0,0,0-5.815,0,12.857,12.857,0,0,0-.689-1.379,19.835,19.835,0,0,0-5.24,1.632,21.518,21.518,0,0,0-3.769,14.5,20.69,20.69,0,0,0,6.435,3.241,14.946,14.946,0,0,0,1.379-2.229,12.434,12.434,0,0,1-2.16-1.034c.184-.138.345-.276.529-.414a15.025,15.025,0,0,0,12.871,0c.184.138.345.276.529.414a12.651,12.651,0,0,1-2.183,1.034,14.947,14.947,0,0,0,1.379,2.229,20.94,20.94,0,0,0,6.435-3.241A21.568,21.568,0,0,0,130.275,76.509ZM117.221,88.092a2.578,2.578,0,1,1,2.3-2.551A2.425,2.425,0,0,1,117.221,88.092Zm8.458,0a2.581,2.581,0,1,1,2.275-2.551A2.425,2.425,0,0,1,125.679,88.092Z" transform="translate(-99.757 -63.419)" fill="#5865f2"/>
  </g>
</svg>
