<svg id="Group" xmlns="http://www.w3.org/2000/svg" width="18.98" height="21.149" viewBox="0 0 18.98 21.149">
  <path id="Rectangle_193_Stroke_" data-name="Rectangle 193 (Stroke)" d="M1.627,2.983V18.167a1.356,1.356,0,0,0,1.356,1.356H16a1.356,1.356,0,0,0,1.356-1.356V10.575a.813.813,0,0,1,1.627,0v7.592A2.983,2.983,0,0,1,16,21.149H2.983A2.983,2.983,0,0,1,0,18.167V2.983A2.983,2.983,0,0,1,2.983,0H9.49a.813.813,0,1,1,0,1.627H2.983A1.356,1.356,0,0,0,1.627,2.983Z" fill="#fff"/>
  <path id="Shape" d="M1.082,14.564A1.086,1.086,0,0,1,.011,13.326L.522,9.746A1.091,1.091,0,0,1,.83,9.133L9.01.952a3.254,3.254,0,1,1,4.6,4.6l-8.18,8.181a1.092,1.092,0,0,1-.614.307l-3.578.511A1.112,1.112,0,0,1,1.082,14.564ZM8.051,4.212h0L2.107,10.155,1.724,12.84l2.684-.384,5.944-5.944-2.3-2.3ZM11.31,1.627a1.614,1.614,0,0,0-1.15.477l-.96.959,2.3,2.3.96-.959A1.627,1.627,0,0,0,11.31,1.627Z" transform="translate(4.392 1.077)" fill="#fff"/>
</svg>
