<svg xmlns="http://www.w3.org/2000/svg" width="43.435" height="43.435" viewBox="0 0 43.435 43.435">
  <g id="Group_56" data-name="Group 56" transform="translate(-710.208 -2239.564)">
    <path id="Path_18" data-name="Path 18" d="M89.254,43.751a21.718,21.718,0,1,1,21.717-21.717A21.742,21.742,0,0,1,89.254,43.751m0-41.1a19.384,19.384,0,1,0,19.385,19.385A19.406,19.406,0,0,0,89.254,2.649" transform="translate(642.672 2239.249)" fill="#3c5a99"/>
    <path id="Path_19" data-name="Path 19" d="M89.865,24.37V36.957a.327.327,0,0,0,.328.328h4.674a.327.327,0,0,0,.328-.328V24.165h3.389a.327.327,0,0,0,.326-.3l.326-3.855a.328.328,0,0,0-.327-.355H95.195V16.92a1.161,1.161,0,0,1,1.161-1.16h2.612a.328.328,0,0,0,.328-.328V11.578a.328.328,0,0,0-.328-.328H94.554a4.689,4.689,0,0,0-4.689,4.689v3.716H87.528a.327.327,0,0,0-.328.328v3.854a.327.327,0,0,0,.328.328h2.337Z" transform="translate(638.654 2237.015)" fill="#3c5a99" fill-rule="evenodd"/>
  </g>
</svg>
