<svg xmlns="http://www.w3.org/2000/svg" width="46.492" height="39.644" viewBox="0 0 46.492 39.644">
  <path id="Combined_Shape" data-name="Combined Shape" d="M23.25,39.644a6.516,6.516,0,0,1-4.683-1.963L3.815,22.667a13.452,13.452,0,0,1,0-18.763,12.949,12.949,0,0,1,18.532,0l.9.917.9-.917a12.949,12.949,0,0,1,18.532,0,13.452,13.452,0,0,1,0,18.763L27.931,37.681A6.51,6.51,0,0,1,23.25,39.644ZM13.083,3.572A9.35,9.35,0,0,0,6.37,6.405a9.862,9.862,0,0,0,0,13.76L21.122,35.18a2.985,2.985,0,0,0,4.257,0L40.13,20.165a9.867,9.867,0,0,0,0-13.76,9.369,9.369,0,0,0-13.425,0L24.526,8.624a1.792,1.792,0,0,1-2.552,0L19.8,6.405A9.35,9.35,0,0,0,13.083,3.572Z" transform="translate(-0.004)"/>
</svg>
