<svg id="Group_83" data-name="Group 83" xmlns="http://www.w3.org/2000/svg" width="31" height="31" viewBox="0 0 31 31">
  <path id="Path_44" data-name="Path 44" d="M62.8,0a1.46,1.46,0,0,1,1.038,1.6c-.03,1.572-.008,3.146-.009,4.719A1.3,1.3,0,0,1,62.4,7.748c-1.573,0-3.146-.021-4.719.009a1.461,1.461,0,0,1-1.6-1.038V1.029A1.516,1.516,0,0,1,57.108,0Z" transform="translate(-56.079 0)"/>
  <path id="Path_45" data-name="Path 45" d="M79.671,0a1.46,1.46,0,0,1,1.038,1.6c-.03,1.572-.008,3.145-.009,4.718a1.3,1.3,0,0,1-1.425,1.428q-2.449,0-4.9,0a1.3,1.3,0,0,1-1.423-1.429c0-1.572.021-3.146-.01-4.718A1.459,1.459,0,0,1,73.98,0Z" transform="translate(-61.33 0)"/>
  <path id="Path_46" data-name="Path 46" d="M96.547,0a1.46,1.46,0,0,1,1.038,1.6c-.03,1.572-.008,3.145-.009,4.718a1.3,1.3,0,0,1-1.425,1.428q-2.449,0-4.9,0a1.3,1.3,0,0,1-1.423-1.429c0-1.572.021-3.146-.01-4.718A1.458,1.458,0,0,1,90.856,0Z" transform="translate(-66.585 0)"/>
  <path id="Path_47" data-name="Path 47" d="M56.079,17.9a1.459,1.459,0,0,1,1.6-1.038c1.571.03,3.145.008,4.717.009A1.3,1.3,0,0,1,63.826,18.3q0,2.45,0,4.9A1.3,1.3,0,0,1,62.4,24.62c-1.572,0-3.146-.021-4.718.009a1.46,1.46,0,0,1-1.6-1.037Z" transform="translate(-56.079 -5.251)"/>
  <path id="Path_48" data-name="Path 48" d="M56.079,34.778a1.458,1.458,0,0,1,1.6-1.038c1.571.03,3.145.008,4.717.009a1.3,1.3,0,0,1,1.429,1.423q0,2.45,0,4.9A1.3,1.3,0,0,1,62.4,41.5c-1.572,0-3.146-.021-4.718.009a1.46,1.46,0,0,1-1.6-1.037Z" transform="translate(-56.079 -10.506)"/>
  <path id="Path_49" data-name="Path 49" d="M72.956,20.751c0-.837,0-1.674,0-2.511a1.287,1.287,0,0,1,1.368-1.363q2.511-.005,5.022,0A1.284,1.284,0,0,1,80.7,18.221q.006,2.527,0,5.053a1.285,1.285,0,0,1-1.352,1.348q-2.511.006-5.022,0a1.289,1.289,0,0,1-1.371-1.36c0-.837,0-1.674,0-2.511" transform="translate(-61.334 -5.254)"/>
  <path id="Path_50" data-name="Path 50" d="M97.58,20.755c0,.827,0,1.654,0,2.481A1.293,1.293,0,0,1,96.2,24.623q-2.5,0-4.992,0a1.291,1.291,0,0,1-1.38-1.382q-.005-2.5,0-4.992a1.286,1.286,0,0,1,1.359-1.372q2.511-.005,5.023,0a1.288,1.288,0,0,1,1.364,1.366c0,.837,0,1.674,0,2.511" transform="translate(-66.588 -5.255)"/>
  <path id="Path_51" data-name="Path 51" d="M76.817,41.5c-.827,0-1.654,0-2.481,0a1.292,1.292,0,0,1-1.38-1.381q0-2.5,0-4.992a1.285,1.285,0,0,1,1.358-1.372q2.511-.006,5.022,0A1.287,1.287,0,0,1,80.7,35.119q.005,2.511,0,5.023A1.289,1.289,0,0,1,79.329,41.5c-.837,0-1.674,0-2.511,0" transform="translate(-61.333 -10.51)"/>
  <path id="Path_52" data-name="Path 52" d="M89.832,37.6c0-.827,0-1.654,0-2.481A1.288,1.288,0,0,1,91.2,33.753q2.511,0,5.023,0A1.283,1.283,0,0,1,97.579,35.1q.006,2.527,0,5.053A1.285,1.285,0,0,1,96.225,41.5q-2.527.006-5.053,0a1.282,1.282,0,0,1-1.338-1.331c-.006-.857,0-1.715,0-2.572" transform="translate(-66.589 -10.51)"/>
</svg>
