<svg xmlns="http://www.w3.org/2000/svg" width="57.763" height="57.763" viewBox="0 0 57.763 57.763">
  <g id="Group" transform="translate(0 0.237)">
    <path id="Subtract" d="M8.629,0A8.629,8.629,0,0,0,0,8.629V37.392a8.629,8.629,0,0,0,8.629,8.629H37.392a8.629,8.629,0,0,0,8.629-8.629V34.516H41.707v2.876a4.314,4.314,0,0,1-4.314,4.314H8.629a4.314,4.314,0,0,1-4.314-4.314V8.629A4.314,4.314,0,0,1,8.629,4.314h2.876V0Z" transform="translate(0 11.505)" fill="#7b7f8c"/>
    <path id="Ellipse_133" data-name="Ellipse 133" d="M4.314,8.629A4.314,4.314,0,1,1,8.629,4.314,4.314,4.314,0,0,1,4.314,8.629Z" transform="translate(40.269 8.629)" fill="#7b7f8c"/>
    <path id="Combined_Shape" data-name="Combined Shape" d="M37.373,46H8.624A8.635,8.635,0,0,1,0,37.373V8.624A8.634,8.634,0,0,1,8.624,0H37.373A8.635,8.635,0,0,1,46,8.624V37.373A8.636,8.636,0,0,1,37.373,46ZM14.686,20.289a4.3,4.3,0,0,0-3.314,1.551L4.313,30.312v7.061a4.317,4.317,0,0,0,4.311,4.313H36.2l-18.332-20A4.265,4.265,0,0,0,14.686,20.289Zm0-4.313a8.526,8.526,0,0,1,6.355,2.8l18.335,20a4.266,4.266,0,0,1,.975,1.721,4.28,4.28,0,0,0,1.335-3.12V8.624a4.317,4.317,0,0,0-4.313-4.311H8.624A4.316,4.316,0,0,0,4.313,8.624v14.95L8.057,19.08A8.607,8.607,0,0,1,14.687,15.977Z" transform="translate(11.763 -0.237)" fill="#7b7f8c"/>
  </g>
</svg>
