<svg xmlns="http://www.w3.org/2000/svg" xmlns:xlink="http://www.w3.org/1999/xlink" width="43.152" height="43.153" viewBox="0 0 43.152 43.153">
  <defs>
    <clipPath id="clip-path">
      <path id="Path_20" data-name="Path 20" d="M155.076,21.575a4.3,4.3,0,1,1,4.3,4.3,4.3,4.3,0,0,1-4.3-4.3m-2.41,0a6.707,6.707,0,1,0,6.706-6.706,6.715,6.715,0,0,0-6.706,6.706m12.208-7.157a1.6,1.6,0,1,0,1.6-1.6,1.6,1.6,0,0,0-1.6,1.6M148.31,26.8V16a5.618,5.618,0,0,1,5.619-5.619h10.8A5.619,5.619,0,0,1,170.343,16V26.8a5.619,5.619,0,0,1-5.619,5.619h-10.8A5.618,5.618,0,0,1,148.31,26.8m5.619-18.977A8.18,8.18,0,0,0,145.747,16V26.8a8.18,8.18,0,0,0,8.181,8.18h10.8A8.18,8.18,0,0,0,172.9,26.8V16a8.18,8.18,0,0,0-8.181-8.18Zm-14.26,13.753A19.526,19.526,0,1,1,159.2,41.1a19.548,19.548,0,0,1-19.526-19.526M159.2,0a21.576,21.576,0,1,0,21.576,21.576A21.6,21.6,0,0,0,159.2,0Z" transform="translate(-137.619 0.001)" fill="none"/>
    </clipPath>
    <linearGradient id="linear-gradient" x1="0.5" x2="0.5" y2="1" gradientUnits="objectBoundingBox">
      <stop offset="0" stop-color="#fbe18a"/>
      <stop offset="0.001" stop-color="#fbe18a"/>
      <stop offset="0.209" stop-color="#fcbb45"/>
      <stop offset="0.376" stop-color="#f75274"/>
      <stop offset="0.524" stop-color="#d53692"/>
      <stop offset="0.739" stop-color="#8f39ce"/>
      <stop offset="1" stop-color="#5b4fe9"/>
    </linearGradient>
  </defs>
  <g id="Group_57" data-name="Group 57" transform="translate(-765.974 -2239.568)">
    <g id="Group_47" data-name="Group 47" transform="translate(765.975 2239.568)">
      <g id="Group_46" data-name="Group 46" transform="translate(0 0)" clip-path="url(#clip-path)">
        <rect id="Rectangle_279" data-name="Rectangle 279" width="60.831" height="60.831" transform="translate(-21.3 18.137) rotate(-40.414)" fill="url(#linear-gradient)"/>
      </g>
    </g>
  </g>
</svg>
