<svg xmlns="http://www.w3.org/2000/svg" xmlns:xlink="http://www.w3.org/1999/xlink" width="32" height="32" viewBox="0 0 32 32">
  <defs>
    <clipPath id="clip-path">
      <rect id="akar-icons:instagram-fill_Background_Mask_" data-name="akar-icons:instagram-fill (Background/Mask)" width="32" height="32" transform="translate(0 0.5)" fill="none"/>
    </clipPath>
  </defs>
  <g id="akar-icons:instagram-fill" transform="translate(0 -0.5)" clip-path="url(#clip-path)">
    <g id="Group" transform="translate(1.333 1.333)">
      <path id="Vector" d="M8.522,28.913A10.691,10.691,0,0,1,5,28.238,7.405,7.405,0,0,1,.761,24,10.77,10.77,0,0,1,.087,20.48C.016,18.941,0,18.427,0,14.5c0-3.9.016-4.42.087-5.977A10.728,10.728,0,0,1,.761,5,7.191,7.191,0,0,1,2.434,2.433,7.161,7.161,0,0,1,5,.761,10.733,10.733,0,0,1,8.521.087C10.07.015,10.535,0,14.5,0c3.927,0,4.439.016,5.977.086A10.731,10.731,0,0,1,24,.761a7.151,7.151,0,0,1,2.568,1.674A7.022,7.022,0,0,1,28.238,5a10.747,10.747,0,0,1,.675,3.521c.07,1.537.087,2.05.087,5.979,0,3.907-.017,4.423-.087,5.978A10.677,10.677,0,0,1,28.238,24a7.17,7.17,0,0,1-1.671,2.57A7.061,7.061,0,0,1,24,28.238a10.75,10.75,0,0,1-3.52.675c-1.554.072-2.021.086-5.98.086C10.6,29,10.084,28.984,8.522,28.913ZM8.641,2.7a8.06,8.06,0,0,0-2.693.5A4.506,4.506,0,0,0,4.28,4.28,4.524,4.524,0,0,0,3.2,5.948a8.02,8.02,0,0,0-.5,2.694c-.07,1.52-.085,1.977-.085,5.858s.014,4.34.085,5.861a8,8,0,0,0,.5,2.692A4.521,4.521,0,0,0,4.28,24.72,4.537,4.537,0,0,0,5.948,25.8a8.055,8.055,0,0,0,2.693.5c1.526.068,1.984.083,5.859.083s4.333-.014,5.86-.083a8.06,8.06,0,0,0,2.693-.5A4.793,4.793,0,0,0,25.8,23.053a8.03,8.03,0,0,0,.5-2.692c.069-1.521.085-1.978.085-5.861s-.015-4.338-.085-5.858a8.025,8.025,0,0,0-.5-2.694A4.793,4.793,0,0,0,23.053,3.2a8.06,8.06,0,0,0-2.693-.5c-1.525-.068-1.983-.084-5.86-.084S10.166,2.628,8.641,2.7ZM12.649,18.97a4.834,4.834,0,1,1,1.858.372A4.823,4.823,0,0,1,12.649,18.97ZM22.371,8.637a1.763,1.763,0,1,1,1.272-3.009,1.743,1.743,0,0,1,.387.584A1.763,1.763,0,0,1,22.4,8.637Z" transform="translate(-0.333 0.167)" fill="#fff"/>
    </g>
  </g>
</svg>
