<svg xmlns="http://www.w3.org/2000/svg" width="19.492" height="16.644" viewBox="0 0 19.492 16.644">
  <path id="Combined_Shape" data-name="Combined Shape" d="M9.75,16.644a2.73,2.73,0,0,1-1.963-.824L1.6,9.517a5.653,5.653,0,0,1,0-7.878,5.424,5.424,0,0,1,7.77,0l.378.385.379-.385a5.424,5.424,0,0,1,7.77,0,5.653,5.653,0,0,1,0,7.878l-6.186,6.3A2.728,2.728,0,0,1,9.75,16.644ZM5.487,1.5A3.918,3.918,0,0,0,2.673,2.689a4.145,4.145,0,0,0,0,5.777l6.185,6.3a1.25,1.25,0,0,0,1.785,0l6.185-6.3a4.147,4.147,0,0,0,0-5.777,3.924,3.924,0,0,0-5.629,0l-.913.931a.751.751,0,0,1-1.07,0L8.3,2.689A3.918,3.918,0,0,0,5.487,1.5Z" transform="translate(-0.004)" fill="#fff"/>
</svg>
