<?xml version="1.0" encoding="utf-8"?>
<!-- Generator: Adobe Illustrator 25.0.0, SVG Export Plug-In . SVG Version: 6.00 Build 0)  -->
<svg version="1.1" xmlns="http://www.w3.org/2000/svg" xmlns:xlink="http://www.w3.org/1999/xlink" x="0px" y="0px"
	 viewBox="0 0 60 60" style="enable-background:new 0 0 60 60;" xml:space="preserve">
<style type="text/css">
	.st0{fill:#8736AA;}
	.st1{fill:none;}
</style>
<g id="Layer_2">
	<path class="st0" d="M30,7.2c0,0,10.6,0.2,14.2,6.8s3.7,5.8,3.7,9.7s-0.9,8.9,0.4,10.9s4.3,5.8,4.3,5.8s1.3,2.9-1.1,2.9
		s-13-0.6-13-0.6s0.8,10.8-8.4,10.9c-9.2,0.1-8.4-10.7-8.4-10.7L8.3,43c0,0-3.3-1-0.9-3s5.3-2.1,4.7-9.6S12.1,7.3,30,7.2z"/>
</g>
<g id="notification">
	<rect id="Regular_1.5px_notification_background" class="st1" width="60" height="60"/>
	<path id="Shape" d="M30,55c-5.3,0-9.7-4.2-10-9.5l0-0.5H8.5C6.6,45,5,43.4,5,41.5c0-0.8,0.3-1.6,0.8-2.3L6.1,39l2.6-2.5
		c0.9-0.8,1.4-2,1.5-3.2l0-0.5l0-7.9C10.1,14,19,5,30,5c10.8,0,19.6,8.5,20,19.3l0,0.6v8c0,1.2,0.4,2.3,1.2,3.2l0.3,0.3L54,39
		c0.7,0.7,1,1.6,1,2.5c0,1.8-1.4,3.4-3.2,3.5l-0.3,0H40C40,50.5,35.5,55,30,55z M23.7,45c-0.1,3.5,2.7,6.3,6.1,6.4
		c3.5,0.1,6.3-2.7,6.4-6.1c0-0.1,0-0.1,0-0.2H23.7z M30.1,8.8c-8.7,0-15.9,6.9-16.2,15.6l0,0.6l0,7.9c0,2.2-0.8,4.3-2.3,5.9
		l-0.4,0.4l-2.1,2.1h41.8l-2.1-2.1c-1.5-1.5-2.4-3.5-2.5-5.7l0-0.5v-8C46.2,16,39,8.8,30.1,8.8L30.1,8.8z"/>
</g>
</svg>
