<svg id="notification" xmlns="http://www.w3.org/2000/svg" width="60" height="60" viewBox="0 0 60 60">
  <rect id="Regular_1.5px_notification_background" data-name="Regular 1.5px/notification background" width="60" height="60" fill="none"/>
  <path id="Shape" d="M25,50a9.988,9.988,0,0,1-9.988-9.5L15,40H3.51A3.511,3.511,0,0,1,.828,34.225l.243-.259L3.645,31.48A4.993,4.993,0,0,0,5.15,28.321l.02-.452-.025-7.882a19.928,19.928,0,0,1,39.846-.682l.009.621v8a5,5,0,0,0,1.168,3.211l.3.324,2.5,2.5A3.56,3.56,0,0,1,50,36.464a3.523,3.523,0,0,1-3.2,3.521l-.34.016H35A10.013,10.013,0,0,1,25,50ZM18.749,40a6.251,6.251,0,1,0,12.5,0Zm6.325-36.25A16.1,16.1,0,0,0,8.906,19.393l-.009.583.025,7.882a8.737,8.737,0,0,1-2.291,5.929l-.383.392L4.1,36.25H45.948l-2.135-2.133a8.733,8.733,0,0,1-2.545-5.654l-.018-.533v-8A16.194,16.194,0,0,0,25.074,3.751Z" transform="translate(5 5)"/>
</svg>
