<svg xmlns="http://www.w3.org/2000/svg" width="220.314" height="43.478" viewBox="0 0 220.314 43.478">
  <g id="Group_3" data-name="Group 3" transform="translate(-367.717 -47.363)">
    <g id="Group_2" data-name="Group 2" transform="translate(367.717 47.363)">
      <g id="Group_1" data-name="Group 1" transform="translate(0)">
        <path id="Path_1" data-name="Path 1" d="M312.242,936.229H305.42l-4.691-17.875c-1.5,3.241-1.908,6.187-2.7,9.005s-1.459,5.674-2.216,8.647a36.681,36.681,0,0,1-6.842.174l-6.6-24.682H288.7q.961,4.523,1.919,9.025l1.916,9.017.571.021,4.463-18.041h6.142l4.481,18.038.593-.04,3.826-17.994H318.8Z" transform="translate(-185.484 -901.943)"/>
        <path id="Path_2" data-name="Path 2" d="M-112.447,879.235c5.2,0,10.283-.356,15.289.092,6.039.54,9.485,5.1,9.336,11.188a10.558,10.558,0,0,1-10.5,10.755c-2.438.11-4.886.018-7.69.018-.029,1.881-.064,3.555-.077,5.23-.013,1.621,0,3.243,0,5.056h-6.177C-112.772,909.906-112.949,882.947-112.447,879.235Zm6.536,16.814a19.024,19.024,0,0,0,7.39-.176c2.442-.577,3.93-2.78,3.96-5.535.03-2.829-1.3-4.9-3.783-5.654a18.746,18.746,0,0,0-7.567-.27Z" transform="translate(112.746 -877.49)"/>
        <path id="Path_3" data-name="Path 3" d="M182.423,906.658h-6.218V872.534h5.906c.717,4.284-.051,8.6.41,13.255.661-.669,1.094-1.072,1.486-1.512,2.482-2.783,5.679-3.058,9-2.343,3.3.709,5.117,3,5.767,6.263a7.7,7.7,0,0,1,.25,1.442q.03,8.207.01,16.415c0,.142-.132.285-.288.6H192.8v-2.709q0-5.392,0-10.784a11.84,11.84,0,0,0-.09-1.954c-.518-3.051-2.2-4.418-5.232-4.3a4.791,4.791,0,0,0-4.969,4.712c-.171,2.932-.069,5.879-.079,8.82C182.418,902.463,182.423,904.483,182.423,906.658Z" transform="translate(-105.347 -872.534)"/>
        <path id="Path_4" data-name="Path 4" d="M459.791,934.329h-5.721l-.282-3.313c-.66.589-1.053.945-1.451,1.3a9.325,9.325,0,0,1-10.269,1.671,6.877,6.877,0,0,1-4.385-6.744,6.094,6.094,0,0,1,4.707-6.131,58.576,58.576,0,0,1,7.922-1.317c1.106-.158,2.235-.158,3.294-.226.486-2.928-.18-4.492-2.114-5.3-2.644-1.1-4.853-.282-7.191,2.744-1.2,0-2.5.009-3.8-.006-.4,0-.792-.075-1.461-.143a6.8,6.8,0,0,1,3.095-5.537,11.737,11.737,0,0,1,7.888-2.1,17.787,17.787,0,0,1,5.662,1.333,6.786,6.786,0,0,1,4.369,6.3c.136,5.629.032,11.264.016,16.9C460.066,933.9,459.932,934.045,459.791,934.329Zm-6.073-10.461a19.822,19.822,0,0,0-7.356.329,3,3,0,0,0-2.28,2.587,2.685,2.685,0,0,0,1.772,2.91,6.042,6.042,0,0,0,6.036-.7A4.762,4.762,0,0,0,453.718,923.868Z" transform="translate(-302.702 -900.206)"/>
        <path id="Path_5" data-name="Path 5" d="M544.323,944.616v-4.4c.784-.091,1.49-.145,2.187-.26,3-.5,4.289-2.625,3.292-5.514q-3.748-10.867-7.534-21.721c-.158-.455-.282-.92-.478-1.563,2.217-.656,4.366-.25,6.759-.29l5.331,19.155.647-.011,5.311-19.035h6.623c-.687,2.087-1.3,4-1.947,5.91q-3.224,9.495-6.468,18.982c-.158.463-.328.922-.5,1.38C555.236,943.4,551.167,945.716,544.323,944.616Z" transform="translate(-381.282 -901.402)"/>
        <path id="Path_6" data-name="Path 6" d="M11.23,919.4c.162-3.711-.354-4.733-2.544-5.457-2.563-.848-4.709.018-6.673,2.7H-3.429A7.256,7.256,0,0,1,.881,910.4a14.12,14.12,0,0,1,12.091-.211c2.591,1.1,4.414,3.081,4.5,5.926.178,5.937.054,11.882.054,18H11.753l-.316-3.361c-.532.438-.943.722-1.29,1.071A9.44,9.44,0,0,1-.484,933.755a6.852,6.852,0,0,1-4.249-6.815A6.006,6.006,0,0,1-.19,920.933,53.1,53.1,0,0,1,7.73,919.6C8.84,919.441,9.975,919.466,11.23,919.4Zm-.069,3.781c-2.545.284-4.9.423-7.2.847a2.733,2.733,0,0,0-2.322,2.763,2.816,2.816,0,0,0,1.959,2.8,6.232,6.232,0,0,0,5.816-.77C11.229,927.535,11.557,925.719,11.161,923.183Z" transform="translate(31.222 -900.009)"/>
        <path id="Path_7" data-name="Path 7" d="M670.988,916.628H665.9c-1.176-1.091-1.968-2.269-3.06-2.716a8.238,8.238,0,0,0-3.83-.228,2.4,2.4,0,0,0-2.336,2.138c-.174,1.342.273,2.112,1.881,2.749a29.057,29.057,0,0,0,3.292.914,52.778,52.778,0,0,1,5.658,1.528,6.174,6.174,0,0,1,2.617,10.011,9.006,9.006,0,0,1-3.265,2.476,15.084,15.084,0,0,1-12.146.077,7.325,7.325,0,0,1-4.825-6.461h5.875c1.038,2.718,3.365,3.494,6.225,3.146a3.48,3.48,0,0,0,1.83-.59,4.315,4.315,0,0,0,1.407-2.1,1.99,1.99,0,0,0-1.546-2.218c-1.154-.393-2.352-.657-3.532-.976a46.727,46.727,0,0,1-5.179-1.441c-2.67-1.068-4.51-2.908-4.545-6.044a6.752,6.752,0,0,1,4.438-6.693,14.3,14.3,0,0,1,11.2-.174A7.3,7.3,0,0,1,670.988,916.628Z" transform="translate(-462.867 -900.031)"/>
        <path id="Path_8" data-name="Path 8" d="M103.693,888.176h6.359v5.4l4.638.312v4.419l-4.315.2a13.929,13.929,0,0,0-.249,1.829q-.038,4.771-.007,9.542c.021,3.28.449,3.726,3.762,4.1.236.026.466.1.858.2v4.062a11.541,11.541,0,0,1-7.3-.108c-2.536-.759-3.583-2.7-3.621-5.213-.057-3.832-.043-7.665-.058-11.5,0-.877,0-1.754,0-2.761l-3.229-.412V893.97l3.162-.427Z" transform="translate(-48.23 -884.34)"/>
      </g>
      <circle id="Ellipse_1" data-name="Ellipse 1" cx="4.496" cy="4.496" r="4.496" transform="translate(211.322 22.266)"/>
    </g>
  </g>
</svg>
