<?xml version="1.0" encoding="utf-8"?>
<!-- Generator: Adobe Illustrator 25.0.0, SVG Export Plug-In . SVG Version: 6.00 Build 0)  -->
<svg version="1.1" xmlns="http://www.w3.org/2000/svg" xmlns:xlink="http://www.w3.org/1999/xlink" x="0px" y="0px"
	 viewBox="0 0 50 50" style="enable-background:new 0 0 50 50;" xml:space="preserve">
<style type="text/css">
	.st0{fill:#8736AA;}
</style>
<g id="Layer_2">
	<circle class="st0" cx="25" cy="25" r="19.7"/>
</g>
<g id="Layer_1">
	<g id="Layer_2_1_">
		<g id="Regular_1.5px_profile_circled">
			<path id="Shape" d="M25,46.2C13.3,46.2,3.8,36.7,3.8,25S13.3,3.8,25,3.8S46.2,13.3,46.2,25c0,6.2-2.7,12-7.3,16l-0.4,0.4
				C34.7,44.5,29.9,46.2,25,46.2z M25,34.6c-4,0-7.8,2.1-9.9,5.5c2.8,1.8,6,2.9,9.3,3h1.3c3.3-0.1,6.5-1.2,9.2-3
				C32.8,36.6,29,34.6,25,34.6z M25,31.4c5,0,9.7,2.5,12.4,6.7c7.2-6.9,7.5-18.3,0.7-25.5S19.8,5,12.6,11.9S5,30.2,11.9,37.4
				c0.2,0.2,0.4,0.4,0.7,0.7C15.3,33.9,20,31.4,25,31.4z M25,29.2c-4.7,0-8.5-3.8-8.5-8.5s3.8-8.5,8.5-8.5s8.5,3.8,8.5,8.5
				S29.7,29.2,25,29.2z M25,15.4c-2.9,0-5.3,2.4-5.3,5.3S22.1,26,25,26s5.3-2.4,5.3-5.3l0,0C30.3,17.8,27.9,15.4,25,15.4z"/>
		</g>
	</g>
</g>
</svg>
