<?xml version="1.0" encoding="utf-8"?>
<!-- Generator: Adobe Illustrator 25.0.0, SVG Export Plug-In . SVG Version: 6.00 Build 0)  -->
<svg version="1.1" id="Regular_1.5px_profile_circled"
	 xmlns="http://www.w3.org/2000/svg" xmlns:xlink="http://www.w3.org/1999/xlink" x="0px" y="0px" viewBox="0 0 60 60"
	 style="enable-background:new 0 0 60 60;" xml:space="preserve">
<path id="Shape" d="M30,55C16.2,55,5,43.8,5,30S16.2,5,30,5c13.8,0,25,11.2,25,25c0,7.2-3.1,14.1-8.6,18.9l-0.5,0.4
	C41.4,53,35.8,55,30,55z M30,41.2c-4.8,0-9.2,2.4-11.7,6.5c3.3,2.2,7.1,3.4,11,3.5l0.7,0c0.2,0,0.5,0,0.8,0
	c3.9-0.1,7.6-1.4,10.9-3.5C39.2,43.7,34.8,41.2,30,41.2z M30,37.5c5.9,0,11.4,3,14.6,7.9c8.5-8.1,8.9-21.5,0.8-30s-21.5-8.9-30-0.8
	c-4.2,4-6.6,9.6-6.6,15.4c0,5.8,2.4,11.4,6.6,15.4C18.6,40.5,24.1,37.5,30,37.5z M30,35c-5.5,0-10-4.5-10-10s4.5-10,10-10
	s10,4.5,10,10C40,30.5,35.5,35,30,35z M30,18.8c-3.5,0-6.3,2.8-6.3,6.3s2.8,6.3,6.3,6.3s6.3-2.8,6.3-6.3c0,0,0,0,0,0
	C36.2,21.5,33.5,18.8,30,18.8z"/>
</svg>
