<?xml version="1.0" encoding="utf-8"?>
<!-- Generator: Adobe Illustrator 23.1.0, SVG Export Plug-In . SVG Version: 6.00 Build 0)  -->
<svg version="1.1" id="Layer_1" xmlns="http://www.w3.org/2000/svg" xmlns:xlink="http://www.w3.org/1999/xlink" x="0px" y="0px"
	 viewBox="0 0 29.2 29.2" style="enable-background:new 0 0 29.2 29.2;" xml:space="preserve">
<style type="text/css">
	.st0{display:none;}
	.st1{display:inline;}
</style>
<g id="Glyph" class="st0">
	<path id="XMLID_223_" class="st1" d="M31.2,27.4l-6.8-6.8c1.4-2.1,2.2-4.6,2.2-7.3C26.7,6,20.7,0,13.3,0S0,6,0,13.3
		s6,13.3,13.3,13.3c2.7,0,5.2-0.8,7.3-2.2l6.8,6.8c1,1,2.7,1,3.8,0S32.3,28.5,31.2,27.4z M4,13.3C4,8.2,8.2,4,13.3,4
		s9.3,4.2,9.3,9.3s-4.2,9.3-9.3,9.3S4,18.5,4,13.3z"/>
</g>
<g>
	<path d="M21.2,19.3c1.3-1.8,2.1-3.9,2.1-6.3c0-5.8-4.7-10.5-10.5-10.5S2.2,7.2,2.2,13s4.7,10.5,10.5,10.5c2.3,0,4.5-0.7,6.3-2.1
		l6.1,5.8l2.2-2.2L21.2,19.3z M12.8,21.4c-1.5,0-3-0.4-4.2-1.1c-0.1,0-0.1-0.1-0.2-0.1C8.2,20.1,8,20,7.9,19.8
		c-0.1,0-0.1-0.1-0.2-0.1c-2.1-1.5-3.4-3.9-3.4-6.7c0-4.7,3.7-8.4,8.4-8.4s8.4,3.7,8.4,8.4S17.4,21.4,12.8,21.4z"/>
</g>
</svg>
