<svg xmlns="http://www.w3.org/2000/svg" xmlns:xlink="http://www.w3.org/1999/xlink" width="45.707" height="45.707" viewBox="0 0 45.707 45.707">
  <defs>
    <linearGradient id="linear-gradient" x1="0.5" x2="0.5" y2="1" gradientUnits="objectBoundingBox">
      <stop offset="0" stop-color="#37aee2"/>
      <stop offset="1" stop-color="#1e96c8"/>
    </linearGradient>
  </defs>
  <g id="Telegram_Messenger_New" data-name="Telegram Messenger New" transform="translate(1.151 1.15)">
    <path id="Path_11" data-name="Path 11" d="M53.673,100.632c2.492-1.37,5.286-2.527,7.884-3.684,4.485-1.886,8.97-3.755,13.526-5.481.89-.3,2.474-.587,2.634.73-.089,1.851-.427,3.7-.676,5.535-.605,4.058-1.317,8.1-2.011,12.137a1.905,1.905,0,0,1-3.008,1.175c-2.6-1.744-5.2-3.488-7.759-5.268-.836-.854-.053-2.082.694-2.687,2.136-2.1,4.4-3.9,6.425-6.1.552-1.317-1.068-.214-1.6.125-2.919,2.011-5.766,4.147-8.863,5.926-1.566.872-3.417.125-4.983-.356-1.406-.569-3.47-1.157-2.26-2.047Z" transform="translate(-45.717 -77.636)" fill="url(#linear-gradient)"/>
    <ellipse id="Ellipse_6" data-name="Ellipse 6" cx="21.703" cy="21.703" rx="21.703" ry="21.703" transform="translate(-0.001 0)" fill="none" stroke="#259dcf" stroke-width="2.3"/>
  </g>
</svg>
