<svg xmlns="http://www.w3.org/2000/svg" width="43.435" height="43.435" viewBox="0 0 43.435 43.435">
  <g id="Group_55" data-name="Group 55" transform="translate(-656.467 -2239.564)">
    <path id="Path_12" data-name="Path 12" d="M21.717,43.751A21.718,21.718,0,1,1,43.435,22.034,21.742,21.742,0,0,1,21.717,43.751m0-41.1A19.384,19.384,0,1,0,41.1,22.034,19.406,19.406,0,0,0,21.717,2.649" transform="translate(656.467 2239.249)" fill="#3cf"/>
    <path id="Path_13" data-name="Path 13" d="M36.505,17.006a10.462,10.462,0,0,1-2.557.731c.412-.07,1.019-.816,1.262-1.116a4.728,4.728,0,0,0,.852-1.551c.021-.045.038-.1-.006-.133a.144.144,0,0,0-.135.011,13.055,13.055,0,0,1-3.037,1.161.2.2,0,0,1-.209-.055,2.392,2.392,0,0,0-.266-.271,5.387,5.387,0,0,0-1.471-.9,5.113,5.113,0,0,0-2.257-.364,5.407,5.407,0,0,0-2.141.606,5.5,5.5,0,0,0-1.728,1.411A5.287,5.287,0,0,0,23.782,18.6a5.6,5.6,0,0,0-.055,2.18c.017.122.006.138-.1.122A16.215,16.215,0,0,1,13.186,15.59c-.123-.138-.189-.138-.288.011a5.291,5.291,0,0,0,.9,6.253c.2.193.415.388.641.564a5.331,5.331,0,0,1-2.014-.564c-.122-.077-.183-.033-.194.105a3.148,3.148,0,0,0,.033.6,5.352,5.352,0,0,0,3.3,4.267,3.1,3.1,0,0,0,.669.2,5.965,5.965,0,0,1-1.976.061c-.144-.028-.2.044-.144.182a5.559,5.559,0,0,0,4.151,3.476c.189.033.376.033.565.076-.011.018-.022.018-.033.033-.466.711-2.082,1.24-2.834,1.5a10.138,10.138,0,0,1-4.3.551c-.232-.033-.28-.031-.343,0s-.008.095.066.155c.294.193.592.365.9.532a14.174,14.174,0,0,0,2.877,1.151,15.325,15.325,0,0,0,14.879-3.479c3.049-3.029,4.118-7.207,4.118-11.39,0-.163.193-.254.308-.34a10,10,0,0,0,2.016-2.106.615.615,0,0,0,.125-.4v-.023c0-.067.008-.046-.095,0" transform="translate(654.161 2236.35)" fill="#3cf"/>
    <path id="Path_17" data-name="Path 17" d="M33.03,14.546a.088.088,0,0,1-.105,0Z" transform="translate(649.741 2236.342)" fill="#fff" fill-rule="evenodd"/>
  </g>
</svg>
