<svg xmlns="http://www.w3.org/2000/svg" width="187.002" height="187.002" viewBox="0 0 187.002 187.002">
  <g id="Group_11" data-name="Group 11" transform="translate(-870 -432)">
    <path id="Shape" d="M93.5,187a93.141,93.141,0,0,1-61.326-22.918A93.813,93.813,0,0,1,8.7,132.929a93,93,0,0,1-6.44-18.924A94.059,94.059,0,0,1,0,93.5,93.064,93.064,0,0,1,15.968,41.224,93.774,93.774,0,0,1,57.106,7.348a93.378,93.378,0,0,1,88.672,8.621,93.774,93.774,0,0,1,33.876,41.138A92.916,92.916,0,0,1,187,93.5a94.06,94.06,0,0,1-2.255,20.5,93.1,93.1,0,0,1-16.576,35.78,94.216,94.216,0,0,1-13.344,14.3l-1.85,1.567A93.119,93.119,0,0,1,93.5,187Zm0-51.426a51.168,51.168,0,0,0-43.709,24.313,79.224,79.224,0,0,0,41.147,13.047l2.562.04c1.032,0,2.065-.019,3.072-.058a79.255,79.255,0,0,0,40.638-13.03A51.168,51.168,0,0,0,93.5,135.576Zm0-14.025a65.507,65.507,0,0,1,54.744,29.565A78.773,78.773,0,0,0,172.976,93.5a79.476,79.476,0,1,0-158.952,0,78.773,78.773,0,0,0,24.732,57.615,65.772,65.772,0,0,1,23.172-21.46,65.156,65.156,0,0,1,31.572-8.1Z" transform="translate(870 432)" fill="#bebebe"/>
    <path id="Subtraction_2" data-name="Subtraction 2" d="M-2822.6-357.2a37.168,37.168,0,0,1-14.558-2.939,37.276,37.276,0,0,1-11.888-8.015,37.282,37.282,0,0,1-8.015-11.888A37.167,37.167,0,0,1-2860-394.6a37.167,37.167,0,0,1,2.939-14.558,37.281,37.281,0,0,1,8.015-11.888,37.276,37.276,0,0,1,11.888-8.015A37.168,37.168,0,0,1-2822.6-432a37.168,37.168,0,0,1,14.558,2.939,37.276,37.276,0,0,1,11.888,8.015,37.281,37.281,0,0,1,8.015,11.888A37.167,37.167,0,0,1-2785.2-394.6a37.167,37.167,0,0,1-2.939,14.558,37.282,37.282,0,0,1-8.015,11.888,37.276,37.276,0,0,1-11.888,8.015A37.168,37.168,0,0,1-2822.6-357.2Zm0-60.775a23.4,23.4,0,0,0-23.375,23.375,23.4,23.4,0,0,0,23.375,23.375,23.4,23.4,0,0,0,23.376-23.375A23.4,23.4,0,0,0-2822.6-417.974Z" transform="translate(3786 893.4)" fill="#8f8f8f" stroke="rgba(0,0,0,0)" stroke-miterlimit="10" stroke-width="1"/>
  </g>
</svg>
