<svg id="wallet" xmlns="http://www.w3.org/2000/svg" width="60" height="60" viewBox="0 0 60 60">
  <rect id="Regular_1.5px_wallet_background" data-name="Regular 1.5px/wallet background" width="60" height="60" fill="none"/>
  <path id="Shape" d="M41.875,48.751h-35A6.881,6.881,0,0,1,.013,42.293L0,41.875v-35A6.88,6.88,0,0,1,6.455.013L6.876,0h30a6.88,6.88,0,0,1,6.862,6.455l.011.421v3.382a6.888,6.888,0,0,1,4.986,6.149l.016.468v25a6.881,6.881,0,0,1-6.458,6.862ZM3.751,13V41.875a3.114,3.114,0,0,0,2.806,3.109L6.876,45h35a3.114,3.114,0,0,0,3.109-2.806L45,41.875v-5H36.25a7.5,7.5,0,0,1-.441-14.987l.441-.013H45v-5a3.114,3.114,0,0,0-2.806-3.109l-.319-.016h-35a6.837,6.837,0,0,1-2.646-.526Zm32.5,12.625a3.75,3.75,0,0,0-.36,7.484l.36.016H45v-7.5ZM6.876,3.751a3.124,3.124,0,0,0-.319,6.232L6.876,10H40V6.876a3.114,3.114,0,0,0-2.806-3.109l-.319-.016Z" transform="translate(5.625 5.625)"/>
</svg>
