<?xml version="1.0" encoding="utf-8"?>
<!-- Generator: Adobe Illustrator 25.0.0, SVG Export Plug-In . SVG Version: 6.00 Build 0)  -->
<svg version="1.1" xmlns="http://www.w3.org/2000/svg" xmlns:xlink="http://www.w3.org/1999/xlink" x="0px" y="0px"
	 viewBox="0 0 60 60" style="enable-background:new 0 0 60 60;" xml:space="preserve">
<style type="text/css">
	.st0{fill:#8736AA;stroke:#000000;stroke-miterlimit:10;}
	.st1{fill:none;}
</style>
<g id="Layer_2">
	<path class="st0" d="M8.7,8.3c0,0-1.4,1.2-1.4,7.4S8,47.1,8,47.1s-0.3,5.6,5.3,5.6s34.5,0,34.5,0s5.2-0.2,5-5.8
		c-0.2-5.6,0-24.8,0-24.8s-0.4-4.9-5.5-5v-5.9c0,0-0.4-3.8-6.1-4S8.9,5.5,8.7,8.3z"/>
</g>
<g id="wallet">
	<rect id="Regular_1.5px_wallet_background" class="st1" width="60" height="60"/>
	<path id="Shape" d="M47.5,54.4h-35c-3.6,0-6.6-2.8-6.9-6.5l0-0.4v-35c0-3.6,2.8-6.6,6.5-6.9l0.4,0h30c3.6,0,6.6,2.8,6.9,6.5l0,0.4
		v3.4c2.8,0.8,4.8,3.3,5,6.1l0,0.5v25c0,3.6-2.8,6.6-6.5,6.9L47.5,54.4z M9.4,18.6v28.9c0,1.6,1.2,3,2.8,3.1l0.3,0h35
		c1.6,0,3-1.2,3.1-2.8l0-0.3v-5h-8.8c-4.1,0-7.5-3.4-7.5-7.5c0-4,3.1-7.3,7.1-7.5l0.4,0h8.8v-5c0-1.6-1.2-3-2.8-3.1l-0.3,0h-35
		c-0.9,0-1.8-0.2-2.6-0.5L9.4,18.6z M41.9,31.2c-2.1,0-3.8,1.7-3.8,3.7c0,1.9,1.5,3.6,3.4,3.7l0.4,0h8.7v-7.5H41.9z M12.5,9.4
		c-1.7,0-3.1,1.4-3.1,3.1c0,1.6,1.2,2.9,2.8,3.1l0.3,0h33.1v-3.1c0-1.6-1.2-3-2.8-3.1l-0.3,0H12.5z"/>
</g>
</svg>
