<svg xmlns="http://www.w3.org/2000/svg" xmlns:xlink="http://www.w3.org/1999/xlink" width="45.707" height="45.707" viewBox="0 0 45.707 45.707">
  <defs>
    <linearGradient id="linear-gradient" x1="0.5" x2="0.5" y2="1" gradientUnits="objectBoundingBox">
      <stop offset="0" stop-color="#47297b"/>
      <stop offset="1" stop-color="#8736aa"/>
    </linearGradient>
    <clipPath id="clip-path">
      <rect id="Rectangle_280" data-name="Rectangle 280" width="21.389" height="21.366" fill="url(#linear-gradient)"/>
    </clipPath>
  </defs>
  <g id="Group_50" data-name="Group 50" transform="translate(1.15 1.15)">
    <ellipse id="Ellipse_6" data-name="Ellipse 6" cx="21.703" cy="21.703" rx="21.703" ry="21.703" transform="translate(0 0)" fill="none" stroke="#8736aa" stroke-width="2.3"/>
    <g id="Group_49" data-name="Group 49" transform="translate(11.049 10.795)" clip-path="url(#clip-path)">
      <path id="Path_21" data-name="Path 21" d="M0,230.092c.222,0,.444.012.667.012H4.536c.087.915.138,1.8.266,2.681s.332,1.729.507,2.616c-.232.072-.5.135-.757.239-.649.265-1.291.546-1.934.825-.1.045-.167.08-.261-.038a10.691,10.691,0,0,1-2.164-4.685c-.075-.388-.1-.785-.156-1.178-.008-.061-.025-.121-.037-.182v-.292" transform="translate(0 -219.066)" fill="url(#linear-gradient)"/>
      <path id="Path_22" data-name="Path 22" d="M0,87.059c.054-.4.1-.81.165-1.213a10.165,10.165,0,0,1,1.347-3.629c.279-.462.605-.9.883-1.3l2.94,1.171a19.889,19.889,0,0,0-.753,5.226H0v-.251" transform="translate(0 -77.036)" fill="url(#linear-gradient)"/>
      <path id="Path_23" data-name="Path 23" d="M334.387,235.943a19.964,19.964,0,0,0,.77-5.276h4.6c-.052.452-.087.9-.158,1.341a10.558,10.558,0,0,1-2.2,4.95c-.056.07-.093.147-.215.082a13.261,13.261,0,0,0-2.79-1.1" transform="translate(-318.364 -219.614)" fill="url(#linear-gradient)"/>
      <path id="Path_24" data-name="Path 24" d="M335.475,87.478a19.772,19.772,0,0,0-.754-5.215L337.64,81.1a10.66,10.66,0,0,1,2.415,6.376Z" transform="translate(-318.682 -77.216)" fill="url(#linear-gradient)"/>
      <path id="Path_25" data-name="Path 25" d="M116.493,235.195a20.474,20.474,0,0,0-4.192.5,19.036,19.036,0,0,1-.757-5.09h4.949Z" transform="translate(-106.199 -219.555)" fill="url(#linear-gradient)"/>
      <path id="Path_26" data-name="Path 26" d="M236.221,230.636a19.181,19.181,0,0,1-.757,5.088,20.421,20.421,0,0,0-4.194-.5v-4.59Z" transform="translate(-220.189 -219.584)" fill="url(#linear-gradient)"/>
      <path id="Path_27" data-name="Path 27" d="M112.309,108.525c.711.117,1.4.253,2.094.336s1.4.112,2.109.166v4.555H111.56a19.013,19.013,0,0,1,.749-5.058" transform="translate(-106.214 -103.325)" fill="url(#linear-gradient)"/>
      <path id="Path_28" data-name="Path 28" d="M231.3,108.512a20.6,20.6,0,0,0,4.19-.5,19.135,19.135,0,0,1,.76,5.088H231.3Z" transform="translate(-220.217 -102.831)" fill="url(#linear-gradient)"/>
      <path id="Path_29" data-name="Path 29" d="M136.292,347.289a3.379,3.379,0,0,1-1.8-.907,7.894,7.894,0,0,1-1.852-2.771c-.109-.246-.2-.5-.305-.768a19.175,19.175,0,0,1,3.953-.466Z" transform="translate(-125.998 -325.972)" fill="url(#linear-gradient)"/>
      <path id="Path_30" data-name="Path 30" d="M231.274,342.522a17.19,17.19,0,0,1,3.945.463,10.456,10.456,0,0,1-1.362,2.648,4.687,4.687,0,0,1-1.627,1.464c-.293.147-.614.239-.956.368Z" transform="translate(-220.192 -326.099)" fill="url(#linear-gradient)"/>
      <path id="Path_31" data-name="Path 31" d="M136.354,4.9a17.7,17.7,0,0,1-3.951-.462c.108-.27.207-.543.325-.807A7.353,7.353,0,0,1,134.854.661a3.144,3.144,0,0,1,1.5-.661Z" transform="translate(-126.058)" fill="url(#linear-gradient)"/>
      <path id="Path_32" data-name="Path 32" d="M235.336,4.511a19.169,19.169,0,0,1-3.979.471V.076a2.866,2.866,0,0,1,1.228.471,5.942,5.942,0,0,1,1.974,2.3c.28.532.512,1.09.777,1.662" transform="translate(-220.271 -0.072)" fill="url(#linear-gradient)"/>
      <path id="Path_33" data-name="Path 33" d="M62.387,356.985a12.432,12.432,0,0,1,2.6-1,9.58,9.58,0,0,0,2.407,3.924,10.412,10.412,0,0,1-5.009-2.927" transform="translate(-59.398 -338.929)" fill="url(#linear-gradient)"/>
      <path id="Path_34" data-name="Path 34" d="M285,10.073a12.542,12.542,0,0,1-2.615,1.01,9.867,9.867,0,0,0-2.369-3.92A10.461,10.461,0,0,1,285,10.073" transform="translate(-266.593 -6.82)" fill="url(#linear-gradient)"/>
      <path id="Path_35" data-name="Path 35" d="M62.073,10.048a10.5,10.5,0,0,1,4.981-2.909,9.877,9.877,0,0,0-2.366,3.916,12.348,12.348,0,0,1-2.616-1.008" transform="translate(-59.099 -6.797)" fill="url(#linear-gradient)"/>
      <path id="Path_36" data-name="Path 36" d="M279.884,359.98a9.834,9.834,0,0,0,2.375-3.92,12.408,12.408,0,0,1,2.617,1,10.549,10.549,0,0,1-4.992,2.917" transform="translate(-266.472 -338.998)" fill="url(#linear-gradient)"/>
    </g>
  </g>
</svg>
