<svg xmlns="http://www.w3.org/2000/svg" xmlns:xlink="http://www.w3.org/1999/xlink" width="32" height="32" viewBox="0 0 32 32">
  <defs>
    <clipPath id="clip-path">
      <rect id="feather:youtube_Background_Mask_" data-name="feather:youtube (Background/Mask)" width="32" height="32" transform="translate(0 0.5)" fill="none"/>
    </clipPath>
  </defs>
  <g id="feather:youtube" transform="translate(0 -0.5)" clip-path="url(#clip-path)">
    <g id="Group" transform="translate(1.333 5.333)">
      <path id="Vector" d="M27.786,1.546A3.707,3.707,0,0,0,26.134.56C23.841,0,14.667,0,14.667,0S5.494,0,3.2.613A3.707,3.707,0,0,0,.614,3.28,38.667,38.667,0,0,0,0,10.333,38.667,38.667,0,0,0,.614,17.44,3.707,3.707,0,0,0,3.2,20c2.293.613,11.467.613,11.467.613s9.173,0,11.467-.613a3.707,3.707,0,0,0,2.587-2.667,38.666,38.666,0,0,0,.613-7,38.667,38.667,0,0,0-.613-7.107h0A3.707,3.707,0,0,0,27.786,1.546Z" transform="translate(0)" fill="none" stroke="#fff" stroke-linecap="round" stroke-linejoin="round" stroke-width="2" stroke-dasharray="0 0"/>
      <path id="Vector-2" data-name="Vector" d="M7.667,4.36,0,0V8.72Z" transform="translate(11.667 5.973)" fill="none" stroke="#fff" stroke-linecap="round" stroke-linejoin="round" stroke-width="2" stroke-dasharray="0 0"/>
    </g>
  </g>
</svg>
